<svg width="108" height="108" viewBox="0 0 108 108" fill="none" xmlns="http://www.w3.org/2000/svg">
<path d="M97.9289 104.625H10.0641C8.97391 104.618 7.90148 104.348 6.93859 103.837C5.9757 103.325 5.151 102.588 4.53503 101.689C3.91906 100.789 3.53016 99.7538 3.40159 98.6711C3.27302 97.5885 3.40861 96.4908 3.79676 95.472L27.1653 47.25V3.375H80.8278V47.25L104.196 95.472C104.584 96.4908 104.72 97.5885 104.591 98.6711C104.463 99.7538 104.074 100.789 103.458 101.689C102.842 102.588 102.017 103.325 101.054 103.837C100.092 104.348 99.0191 104.618 97.9289 104.625ZM74.6616 49.9061L74.1216 48.6338V47.25H57.3749V40.5H74.1216V27H57.3749V20.25H74.1216V10.125H33.8714V48.6338L33.3314 49.9061L10.0709 97.875H97.9221L74.6616 49.9061Z" fill="#C0CCD4"/>
</svg>
