<svg width="108" height="108" viewBox="0 0 108 108" fill="none" xmlns="http://www.w3.org/2000/svg">
<path d="M94.5 87.75H13.5C10.8147 87.75 8.23935 86.6833 6.34054 84.7845C4.44174 82.8857 3.375 80.3103 3.375 77.625V16.875C3.375 14.1897 4.44174 11.6143 6.34054 9.71554C8.23935 7.81674 10.8147 6.75 13.5 6.75H94.5C97.1853 6.75 99.7607 7.81674 101.659 9.71554C103.558 11.6143 104.625 14.1897 104.625 16.875V77.625C104.625 80.3103 103.558 82.8857 101.659 84.7845C99.7607 86.6833 97.1853 87.75 94.5 87.75ZM97.875 16.875C97.875 15.9799 97.5194 15.1215 96.8865 14.4885C96.2536 13.8556 95.3951 13.5 94.5 13.5H13.5C12.6049 13.5 11.7464 13.8556 11.1135 14.4885C10.4806 15.1215 10.125 15.9799 10.125 16.875V77.625C10.125 78.5201 10.4806 79.3786 11.1135 80.0115C11.7464 80.6444 12.6049 81 13.5 81H94.5C95.3951 81 96.2536 80.6444 96.8865 80.0115C97.5194 79.3786 97.875 78.5201 97.875 77.625V16.875ZM67.473 58.482L77.598 47.25L67.473 36.018L72.5355 30.402L87.723 47.25L72.5355 64.0946L67.473 58.482ZM35.4679 64.098L20.277 47.25L35.4645 30.4054L40.527 36.0214L30.402 47.25L40.527 58.482L35.4679 64.098ZM87.75 101.25H20.25V94.5H87.75V101.25Z" fill="#C0CCD4"/>
</svg>
