<svg width="108" height="108" viewBox="0 0 108 108" fill="none" xmlns="http://www.w3.org/2000/svg">
<path d="M104.816 32.1807L56.1973 10.58C55.5085 10.2729 54.7627 10.1143 54.0086 10.1143C53.2544 10.1143 52.5086 10.2729 51.8198 10.58L3.21475 32.1807C2.25924 32.605 1.44736 33.2975 0.877525 34.174C0.307695 35.0506 0.00439453 36.0737 0.00439453 37.1192C0.00439453 38.1647 0.307695 39.1877 0.877525 40.0643C1.44736 40.9409 2.25924 41.6333 3.21475 42.0576L8.09851 44.2328V53.8088C6.75881 54.2827 5.56888 55.1037 4.65022 56.1879C3.73155 57.2721 3.11705 58.5807 2.86945 59.98C2.62186 61.3793 2.75004 62.8193 3.2409 64.1529C3.73177 65.4865 4.56774 66.6659 5.66347 67.5708L0.355633 76.8048C0.00750332 77.4305 -0.0814792 78.1677 0.107782 78.8583C0.297043 79.5488 0.749464 80.1377 1.36795 80.4984C1.78493 80.7348 2.25667 80.8574 2.73595 80.8541C3.21109 80.8488 3.67667 80.7199 4.08685 80.4801C4.49704 80.2402 4.83767 79.8976 5.07523 79.4861L8.13955 74.1783V80.2932C8.07717 80.684 8.10032 81.0837 8.2074 81.4648C8.31449 81.8458 8.50296 82.199 8.75981 82.5001C9.01666 82.8012 9.33578 83.043 9.69515 83.2088C10.0545 83.3746 10.4456 83.4605 10.8413 83.4605C11.2371 83.4605 11.6282 83.3746 11.9875 83.2088C12.3469 83.043 12.666 82.8012 12.9229 82.5001C13.1797 82.199 13.3682 81.8458 13.4753 81.4648C13.5824 81.0837 13.6055 80.684 13.5431 80.2932V74.2056L16.6075 79.5135C16.845 79.925 17.1857 80.2675 17.5958 80.5074C18.006 80.7473 18.4716 80.8762 18.9467 80.8815C19.426 80.8848 19.8978 80.7621 20.3147 80.5258C20.9286 80.1605 21.3752 79.5697 21.5593 78.8795C21.7433 78.1894 21.6502 77.4546 21.2997 76.8322L15.9508 67.5708C16.8715 66.8212 17.6142 65.8764 18.1252 64.8046C18.6362 63.7329 18.9028 62.5611 18.9057 61.3738C18.8943 59.6952 18.3617 58.0617 17.3814 56.699C16.4011 55.3364 15.0216 54.3121 13.4337 53.7677V46.6268L21.5323 50.2246V53.3163C21.5359 54.1531 21.7314 54.9779 22.1037 55.7273C22.4761 56.4768 23.0153 57.1308 23.68 57.6392C23.8579 57.7623 24.0767 57.8307 24.2683 57.9401C24.4598 58.0496 24.2683 58.46 24.2683 58.7199C24.2683 80.3479 37.5652 97.8857 53.9675 97.8857C70.3698 97.8857 83.7215 80.3479 83.7215 58.7199V57.9401C83.7215 57.6802 84.1319 57.7623 84.3097 57.6392C84.9744 57.1308 85.5137 56.4768 85.886 55.7273C86.2584 54.9779 86.4539 54.1531 86.4575 53.3163V50.2246L104.857 42.0166C105.79 41.5716 106.577 40.8716 107.128 39.9976C107.68 39.1236 107.972 38.1114 107.972 37.0781C107.972 36.0448 107.68 35.0326 107.128 34.1587C106.577 33.2847 105.79 32.5847 104.857 32.1397L104.816 32.1807ZM10.8071 58.7199C11.3483 58.7199 11.8773 58.8803 12.3272 59.181C12.7771 59.4816 13.1278 59.9089 13.3349 60.4088C13.542 60.9088 13.5961 61.4589 13.4906 61.9896C13.385 62.5204 13.1244 63.0079 12.7418 63.3905C12.3592 63.7731 11.8716 64.0337 11.3409 64.1393C10.8102 64.2449 10.2601 64.1907 9.76012 63.9836C9.26019 63.7765 8.83288 63.4258 8.53225 62.9759C8.23161 62.526 8.07115 61.997 8.07115 61.4559C8.07115 60.7302 8.3594 60.0343 8.8725 59.5212C9.3856 59.0081 10.0815 58.7199 10.8071 58.7199ZM81.0128 53.2479C75.5409 51.6747 69.4259 48.9387 54.0086 48.9387C38.5912 48.9387 32.5173 51.6747 27.0043 53.2479V42.5912C27.0043 38.1178 39.0974 34.4926 54.0086 34.4926C68.9197 34.4926 81.0128 38.1178 81.0128 42.5912V53.2479ZM54.0086 92.4821C40.6158 92.4821 29.7129 77.3383 29.7129 58.7199V58.1453L31.0809 57.7076C35.7868 56.2301 41.6555 54.397 53.9402 54.397C66.2248 54.397 72.0935 56.2301 76.7994 57.7076L78.1674 58.1453V58.7199C78.3179 77.3383 67.4149 92.4821 54.0086 92.4821ZM86.4165 44.3148V42.5912C86.4165 29.7457 59.4258 29.089 54.0086 29.089C48.5913 29.089 21.6007 29.7457 21.6007 42.5912V44.3148L5.47195 37.1192L54.0086 15.5869L102.6 37.1192L86.4165 44.3148Z" fill="#C0CCD4"/>
</svg>
