<svg width="108" height="108" viewBox="0 0 108 108" fill="none" xmlns="http://www.w3.org/2000/svg">
<path d="M87.75 104.625H20.25C17.5647 104.625 14.9893 103.558 13.0905 101.659C11.1917 99.7606 10.125 97.1853 10.125 94.5V13.5C10.125 10.8147 11.1917 8.23934 13.0905 6.34053C14.9893 4.44172 17.5647 3.37499 20.25 3.37499H23.625V3.35474H50.625V3.37499H87.75C90.4353 3.37499 93.0107 4.44172 94.9095 6.34053C96.8083 8.23934 97.875 10.8147 97.875 13.5V94.5C97.875 97.1853 96.8083 99.7606 94.9095 101.659C93.0107 103.558 90.4353 104.625 87.75 104.625ZM43.875 10.125H30.375V30.375L37.125 27L43.875 30.375V10.125ZM91.125 13.5C91.125 12.6049 90.7694 11.7464 90.1365 11.1135C89.5036 10.4806 88.6451 10.125 87.75 10.125H50.625V43.8277L37.125 37.125L23.625 43.8277V10.125H20.25C19.3549 10.125 18.4965 10.4806 17.8635 11.1135C17.2306 11.7464 16.875 12.6049 16.875 13.5V81H91.125V13.5ZM91.125 87.75H16.875V94.5C16.875 95.3951 17.2306 96.2535 17.8635 96.8865C18.4965 97.5194 19.3549 97.875 20.25 97.875H87.75C88.6451 97.875 89.5036 97.5194 90.1365 96.8865C90.7694 96.2535 91.125 95.3951 91.125 94.5V87.75Z" fill="#C0CCD4"/>
</svg>
