<svg width="108" height="108" viewBox="0 0 108 108" fill="none" xmlns="http://www.w3.org/2000/svg">
<path d="M94.5 104.625H13.5C10.8147 104.625 8.23935 103.558 6.34054 101.659C4.44174 99.7607 3.375 97.1853 3.375 94.5V33.75C3.375 31.0647 4.44174 28.4893 6.34054 26.5905C8.23935 24.6917 10.8147 23.625 13.5 23.625H35.7345L20.9862 8.80584C20.5978 8.41554 20.598 7.78465 20.9866 7.39459L24.2832 4.08623C24.6741 3.69389 25.3095 3.69403 25.7002 4.08654L43.8311 22.2986L42.525 23.625H65.475L64.152 22.2952L82.301 4.08451C82.6913 3.69285 83.3254 3.69231 83.7164 4.08331L87.0273 7.3942C87.4173 7.78421 87.4179 8.41637 87.0286 8.80711L72.2655 23.625H94.5C97.1853 23.625 99.7607 24.6917 101.659 26.5905C103.558 28.4893 104.625 31.0647 104.625 33.75V94.5C104.625 97.1853 103.558 99.7607 101.659 101.659C99.7607 103.558 97.1853 104.625 94.5 104.625ZM97.875 33.75C97.875 32.8549 97.5194 31.9965 96.8865 31.3635C96.2536 30.7306 95.3951 30.375 94.5 30.375H13.5C12.6049 30.375 11.7464 30.7306 11.1135 31.3635C10.4806 31.9965 10.125 32.8549 10.125 33.75V94.5C10.125 95.3951 10.4806 96.2536 11.1135 96.8865C11.7464 97.5194 12.6049 97.875 13.5 97.875H94.5C95.3951 97.875 96.2536 97.5194 96.8865 96.8865C97.5194 96.2536 97.875 95.3951 97.875 94.5V33.75ZM47.25 56.2305C47.25 53.8345 49.9204 52.4053 51.9141 53.7344L63.7558 61.6288C65.537 62.8163 65.537 65.4337 63.7558 66.6212L51.9141 74.5156C49.9204 75.8447 47.25 74.4155 47.25 72.0194V56.2305Z" fill="#C0CCD4"/>
</svg>
