<svg width="108" height="108" viewBox="0 0 108 108" fill="none" xmlns="http://www.w3.org/2000/svg">
<g clip-path="url(#clip0_534_140)">
<path d="M61.2182 42.0106C61.5348 42.8059 62.1267 43.4609 62.8861 43.8561C63.2729 44.0296 63.6925 44.1182 64.1164 44.1159L65.1007 43.9518C65.4886 43.8283 65.8461 43.6245 66.15 43.3536C66.4538 43.0827 66.6972 42.7509 66.8643 42.3797C67.2116 41.6023 67.2459 40.7209 66.96 39.9189L57.8415 15.0379C57.5508 14.1738 57.0139 13.4135 56.2967 12.8506C55.6167 12.3519 54.7954 12.083 53.9521 12.083C53.1089 12.083 52.2876 12.3519 51.6076 12.8506C50.8863 13.4067 50.3521 14.1698 50.0764 15.0379L41.0126 39.8232C40.8113 40.2314 40.7065 40.6805 40.7065 41.1356C40.7065 41.5908 40.8113 42.0398 41.0126 42.448C41.1833 42.8075 41.4252 43.1285 41.7237 43.3917C42.0221 43.6549 42.3709 43.8548 42.7488 43.9792L43.7058 44.1432C44.2013 44.1337 44.6862 43.9972 45.1139 43.7468C45.843 43.3435 46.4051 42.6942 46.6997 41.9149L49.4339 34.5873H58.5934L61.2182 42.0106ZM51.4982 28.8182L53.9726 22.0921L56.4061 28.8182H51.4982Z" fill="#C0CCD4"/>
<path d="M37.1847 78.0882C38.4389 76.5415 39.1241 74.6112 39.1259 72.6198C39.1776 70.3859 38.387 68.2142 36.9113 66.5363C36.0761 65.6272 35.0525 64.9115 33.912 64.4393C32.7715 63.967 31.5415 63.7495 30.3082 63.8021H22.1057C21.3339 63.7718 20.565 63.9144 19.8554 64.2195C19.1458 64.5247 18.5134 64.9846 18.0044 65.5657C17.1311 66.5937 16.6685 67.9084 16.7057 69.2568V89.189C16.6753 90.5281 17.1374 91.8318 18.0044 92.8528C18.5159 93.4298 19.1491 93.8861 19.8583 94.1888C20.5676 94.4914 21.3352 94.6327 22.1057 94.6026H30.8277C32.1692 94.657 33.5063 94.4157 34.7442 93.896C35.9821 93.3763 37.0906 92.5907 37.9913 91.595C39.5817 89.8167 40.4369 87.5003 40.3837 85.115C40.3958 83.7832 40.1157 82.465 39.563 81.2532C39.0102 80.0415 38.1984 78.9657 37.1847 78.1019V78.0882ZM22.7892 81.3966H30.609C31.118 81.37 31.6266 81.4555 32.099 81.6468C32.5714 81.8381 32.9961 82.1307 33.3432 82.5039C33.9871 83.2119 34.3261 84.1451 34.2865 85.1014C34.3275 86.044 34.01 86.9672 33.3978 87.6852C33.0716 88.0534 32.6655 88.3421 32.2106 88.5293C31.7556 88.7165 31.2639 88.7972 30.773 88.7652L22.7619 89.0386L22.7892 81.3966ZM30.0758 69.5849C30.4948 69.5496 30.9163 69.6114 31.3075 69.7655C31.6988 69.9196 32.0492 70.1619 32.3315 70.4735C32.8254 71.0639 33.096 71.8091 33.096 72.5788C33.096 73.3486 32.8254 74.0938 32.3315 74.6841C32.0534 74.9944 31.708 75.237 31.3218 75.3933C30.9356 75.5497 30.5188 75.6158 30.1032 75.5864H22.7072L22.4611 69.5849H30.0758Z" fill="#C0CCD4"/>
<path d="M66.249 79.168C66.0416 83.3663 67.379 87.4951 70.0085 90.7746C71.2186 92.2226 72.7423 93.3763 74.4642 94.1485C76.1861 94.9206 78.061 95.2909 79.9472 95.2313C83.148 95.3673 86.2792 94.2714 88.6966 92.169C90.63 90.3308 91.956 87.9459 92.4971 85.3336C92.6118 84.9032 92.6358 84.4538 92.5675 84.0137C92.4993 83.5736 92.3403 83.1525 92.1006 82.7771C91.8849 82.431 91.602 82.1316 91.2685 81.8968C90.9351 81.662 90.5579 81.4965 90.1594 81.41L89.4211 81.328C88.8897 81.328 88.3672 81.4645 87.9037 81.7244C87.5257 81.9481 87.2005 82.2508 86.9504 82.6119C86.7003 82.9729 86.5312 83.3836 86.4545 83.8161C86.2049 85.5062 85.3616 87.0522 84.0758 88.1771C82.8667 88.9874 81.4282 89.3854 79.9745 89.3118C78.962 89.3631 77.9511 89.1815 77.0197 88.781C76.0883 88.3804 75.2612 87.7717 74.6019 87.0014C72.939 84.7115 72.1355 81.9091 72.3325 79.086C72.1524 76.2943 72.9553 73.5277 74.6019 71.2662C75.2544 70.4826 76.0782 69.8594 77.0097 69.4446C77.9412 69.0298 78.9556 68.8345 79.9745 68.8738C81.4657 68.8096 82.9405 69.2058 84.1988 70.0085C85.365 70.869 86.1419 72.1573 86.3589 73.5903C86.4216 74.03 86.5756 74.4518 86.8111 74.8285C87.0465 75.2052 87.3581 75.5285 87.7259 75.7776C88.211 76.1163 88.7885 76.2977 89.3801 76.2971L90.0637 76.2151C90.8325 76.0493 91.508 75.594 91.9502 74.9437C92.4109 74.2525 92.5871 73.4102 92.4424 72.5923C92.0245 69.9987 90.7258 67.6282 88.7649 65.8799C86.2931 63.9061 83.1893 62.8958 80.0292 63.0364C78.137 62.9809 76.2572 63.36 74.5342 64.1444C72.8113 64.9288 71.2911 66.0978 70.0905 67.5614C67.435 70.831 66.0685 74.9597 66.249 79.168Z" fill="#C0CCD4"/>
<path d="M102.532 51.2795H82.3124V5.46836C82.2944 4.02994 81.7104 2.65654 80.6868 1.64576C79.6632 0.634983 78.2826 0.068247 76.8441 0.0683594H31.0329C29.5945 0.086341 28.2211 0.670398 27.2103 1.69397C26.1995 2.71754 25.6328 4.09818 25.6329 5.53671V51.2795H5.46836C4.02994 51.2975 2.65654 51.8815 1.64576 52.9051C0.634983 53.9287 0.068247 55.3093 0.0683594 56.7479V102.532C0.068247 103.97 0.634983 105.351 1.64576 106.374C2.65654 107.398 4.02994 107.982 5.46836 108H102.532C103.982 108 105.373 107.424 106.398 106.398C107.424 105.373 108 103.982 108 102.532V56.6795C107.982 55.2411 107.398 53.8677 106.374 52.8569C105.351 51.8461 103.97 51.2794 102.532 51.2795ZM31.0329 5.46836H76.9124V51.2795H31.0329V5.46836ZM5.46836 102.532V56.6795H51.2795V102.532H5.46836ZM102.532 102.532H56.6795V56.6795H102.532V102.532Z" fill="#C0CCD4"/>
</g>
<defs>
<clipPath id="clip0_534_140">
<rect width="108" height="108" fill="white"/>
</clipPath>
</defs>
</svg>
