<svg width="20" height="20" viewBox="0 0 20 20" fill="none" xmlns="http://www.w3.org/2000/svg">
<path d="M15.7375 3.75C15.4267 3.46139 15.0968 3.19411 14.75 2.95C13.3209 1.93802 11.6358 1.34887 9.88747 1.25C9.54789 1.19661 9.20205 1.19661 8.86247 1.25C7.11417 1.34887 5.42904 1.93802 3.99997 2.95C2.06243 4.33384 0.724011 6.40304 0.256365 8.73765C-0.211281 11.0722 0.226885 13.4973 1.48193 15.5207C2.73698 17.544 4.71487 19.014 7.01416 19.6323C9.31345 20.2507 11.7619 19.971 13.8625 18.85C15.3302 18.032 16.5555 16.8402 17.4139 15.3957C18.2722 13.9511 18.7332 12.3052 18.75 10.625C18.7508 9.33299 18.4835 8.05486 17.9649 6.87147C17.4464 5.68808 16.6879 4.62518 15.7375 3.75ZM17.5 10H15C14.9498 8.30995 14.5853 6.64403 13.925 5.0875C14.2177 4.92367 14.5015 4.74425 14.775 4.55C16.358 5.94275 17.3356 7.8979 17.5 10ZM5.96247 5.6C6.85259 5.95902 7.79286 6.17828 8.74997 6.25V10H4.99997C5.0461 8.48645 5.37245 6.99457 5.96247 5.6ZM9.99997 2.6C10.9289 2.95161 11.7036 3.62013 12.1875 4.4875C11.4858 4.75975 10.7495 4.93226 9.99997 5V2.6ZM8.74997 2.6V5C8.00164 4.94029 7.26534 4.7762 6.56247 4.5125C7.04174 3.63574 7.81706 2.95789 8.74997 2.6ZM8.74997 18.65C8.21678 18.4751 7.7356 18.1701 7.34997 17.7625C7.80798 17.6339 8.27647 17.546 8.74997 17.5V18.65ZM9.99997 17.5C10.4727 17.5378 10.9412 17.6173 11.4 17.7375C11.0172 18.1542 10.5358 18.468 9.99997 18.65V17.5ZM8.74997 11.25V16.25C7.99011 16.2958 7.2387 16.4343 6.51247 16.6625C5.55854 15.0153 5.03813 13.1531 4.99997 11.25H8.74997ZM9.99997 16.25V11.25H13.75C13.722 13.1647 13.2057 15.0406 12.25 16.7C11.5213 16.4581 10.7656 16.3069 9.99997 16.25ZM9.99997 10V6.25C10.9551 6.19027 11.8953 5.98368 12.7875 5.6375C13.373 7.02038 13.6992 8.49913 13.75 10H9.99997ZM13.6875 3.75L13.3375 3.9625C13.2048 3.73728 13.0587 3.52023 12.9 3.3125C13.1704 3.44363 13.4333 3.58969 13.6875 3.75ZM5.86247 3.3125C5.71247 3.5125 5.56247 3.7375 5.42497 3.9625L5.06247 3.75C5.32073 3.58928 5.58781 3.44322 5.86247 3.3125ZM3.99997 4.5625C4.27348 4.75675 4.55723 4.93617 4.84997 5.1C4.18258 6.65098 3.80957 8.31258 3.74997 10H1.24997C1.4208 7.89422 2.40763 5.93851 3.99997 4.55V4.5625ZM1.24997 11.25H3.74997C3.79607 13.3198 4.34063 15.348 5.33747 17.1625L4.87497 17.3875C3.84398 16.7073 2.98163 15.801 2.35349 14.7375C1.72535 13.674 1.34795 12.4813 1.24997 11.25ZM13.825 17.3875L13.3625 17.1625C14.3768 15.3524 14.9385 13.324 15 11.25H17.5C17.4006 12.4824 17.0213 13.6758 16.3909 14.7394C15.7606 15.8029 14.8958 16.7087 13.8625 17.3875H13.825Z" fill="white"/>
</svg>
